<svg xmlns="http://www.w3.org/2000/svg" viewBox="0 0 3019.69 3019.69">
	<path fill="#E6E6E6" d="M1509.85 0c833.86,0 1509.85,675.99 1509.85,1509.85 0,833.86 -675.99,1509.85 -1509.85,1509.85 -833.86,0 -1509.85,-675.99 -1509.85,-1509.85 0,-833.86 675.99,-1509.85 1509.85,-1509.85z"/>
	<path fill="#333A54" d="M850.66 1960.46c0,282.2 161.52,430.44 484.58,430.44l349.66 0c322.59,0 484.14,-148.24 484.14,-430.44l0 -901.21c0,-282.69 -161.55,-430.45 -484.14,-430.45l-349.66 0c-323.06,0 -484.58,147.76 -484.58,430.45l0 901.21zm420.04 -76.34l0 116.95c0,17.63 11.81,31.9 26.38,31.9l425.54 0c14.57,0 26.37,-14.28 26.37,-31.9l0 -116.95 -478.29 0zm451.92 -570.46c14.57,0 26.37,-14.28 26.37,-31.9l0 -263.13c0,-17.62 -11.8,-31.89 -26.37,-31.89l-425.54 0c-14.56,0 -26.38,14.28 -26.38,31.89l0 263.13c0,17.63 11.81,31.9 26.38,31.9l186.39 0 0 166.42 -186.39 0c-14.56,0 -26.38,14.29 -26.38,31.89l0 308.34 478.29 0 0 -308.34c0,-17.61 -11.8,-31.89 -26.37,-31.89l-186.39 0 0 -166.42 186.39 0zm-337.61 -106.33c-14.57,0 -26.38,-14.28 -26.38,-31.9l0 -50.47c0,-17.62 11.8,-31.89 26.38,-31.89l249.69 0c14.57,0 26.39,14.28 26.39,31.89l0 50.47c0,17.63 -11.82,31.9 -26.39,31.9l-249.69 0z"/>
</svg>
