<svg xmlns="http://www.w3.org/2000/svg" viewBox="0 0 1771.9 1771.9">
	<path fill="#333A54" d="M885.95 0c489.29,0 885.95,396.66 885.95,885.95 0,489.29 -396.66,885.95 -885.95,885.95 -489.29,0 -885.95,-396.66 -885.95,-885.95 0,-489.29 396.66,-885.95 885.95,-885.95z"/>
	<path fill="#E6E6E6" d="M499.15 1150.36c0,165.59 94.78,252.58 284.34,252.58l205.17 0c189.29,0 284.08,-86.99 284.08,-252.58l0 -528.82c0,-165.88 -94.8,-252.58 -284.08,-252.58l-205.17 0c-189.57,0 -284.34,86.7 -284.34,252.58l0 528.82zm246.47 -44.8l0 68.63c0,10.34 6.93,18.72 15.48,18.72l249.7 0c8.55,0 15.47,-8.38 15.47,-18.72l0 -68.63 -280.65 0zm265.18 -334.74c8.55,0 15.47,-8.38 15.47,-18.72l0 -154.4c0,-10.34 -6.93,-18.72 -15.47,-18.72l-249.7 0c-8.55,0 -15.48,8.38 -15.48,18.72l0 154.4c0,10.34 6.93,18.72 15.48,18.72l109.37 0 0 97.65 -109.37 0c-8.55,0 -15.48,8.38 -15.48,18.72l0 180.93 280.65 0 0 -180.93c0,-10.33 -6.93,-18.72 -15.47,-18.72l-109.37 0 0 -97.65 109.37 0zm-198.11 -62.39c-8.55,0 -15.48,-8.38 -15.48,-18.72l0 -29.61c0,-10.34 6.93,-18.72 15.48,-18.72l146.51 0c8.55,0 15.48,8.38 15.48,18.72l0 29.61c0,10.34 -6.93,18.72 -15.48,18.72l-146.51 0z"/>
</svg>
